<?xml version="1.0" encoding="UTF-8"?>
<svg id="Layer_1" xmlns="http://www.w3.org/2000/svg" version="1.1" viewBox="0 0 1738.9 937.4">
  <!-- Generator: Adobe Illustrator 30.3.0, SVG Export Plug-In . SVG Version: 2.1.3 Build 182)  -->
  <defs>
    <style>
      .st0 {
        fill: #fff;
      }
    </style>
  </defs>
  <path class="st0" d="M499.7,558h0c-5.8,5.4-8.9,12.2-9.8,19.8,0,1-.1,2.1,0,3.1,1.4,10.5,11.6,19.7,19.5,26.2,8.4,6.8,17.8,12.8,27.3,18.1v-110.5c-5.1,10.5-11.6,20.3-20,28.4-5.3,5.3-11.7,9.9-17,14.9Z"/>
  <rect class="st0" x="264.2" y="875.2" width="0" height="0" transform="translate(-541.5 443.2) rotate(-45)"/>
  <path class="st0" d="M368.3,893.6h0c.1,0,.2,0,.3,0,0,0-.2,0-.3,0,0,0,0,0,0,0Z"/>
  <path class="st0" d="M257.1,628.3c-4.2,5.2-12.6,19.5-15.3,25.6-3.6,8.2,3.1,10.1,10,11.6,3.5.8,30.9,3.7,32,2.6,1.4-12.1,4.6-24.1,5.9-36.2.3-3.1.9-8.1.9-11.1,0-6.2-4.8-13.8-4.5-20.5-8.5,9.6-21.2,18.1-29,27.9Z"/>
  <path class="st0" d="M129,301.6c-15.1-5.1-31.3-5.9-47.3-5.1v31.6c16.9-3.5,49.1-10.7,56.3-19.5h0c2-2.8-6.7-6.1-9-7Z"/>
  <path class="st0" d="M451.4,218.8l5.2,13.1,1.1,2.7c39.5,2.3,73.8,11.7,98.9,18.7,9.3,2.6,17.4,4.8,24.2,6.3,9.6,2.1,17.3,2.8,23.2,2.8-21.6-6.6-88.2-27.2-114.3-35.5-23-7.3-34.2-8.1-38.4-8Z"/>
  <path class="st0" d="M309.7,388.4h0c70.3-12.2,71.3,53.5,47.3,94.3s-59.4,53.9-59.4,53.9c21.7-26.3,27.9-69.3,27.9-69.3-23.6,90-80.8,95.9-80.8,95.9,22.9-27.3,36.1-70,36.1-70-41.1,93.6-83.1,90.3-83.1,90.3,18.4-17.1,37.4-64.7,37.4-64.7-40.1,80.8-85.1,87.7-85.1,87.7,18.1-23,50.2-86.4,50.2-86.4-22.3,40.4-65,96.6-65,96.6,119.2-21.3,200.7-97.2,200.7-97.2-3,14.8-31.9,45.6-31.9,45.6,17.1-8.5,49.6-36.1,63.1-56.5,13.5-20.4,43-86,12.2-123.2-30.9-37.1-69.6,3-69.6,3Z"/>
  <path class="st0" d="M444.3,199.1h0c-.4,2.1-1.7,4.1-4.2,5.5-11.9,6.3-21.4-13.8-8.3-16.5,7.3-1.5,12.9,4.6,12.7,10.1.6-7.4-3.9-15.4-13.8-15.4-7.7,0-12.1,5.2-13.2,11.1-10.6-4.9-37.7-13-68.6-.7,0,0,29.8,2.3,39.8,13.3,9.2,10,28.4,26.5,56.3,22.1l-7.2-19.6c3.7-2,5.9-5.7,6.5-9.8Z"/>
  <path class="st0" d="M491.2,222.1h0c22,7.1,73,22.8,101.2,31.5-27.8-13-58.5-26-79.4-34.3-22-8.7-36.2-17.5-41.5-21l-9.5,4.9-9.8,5c-2.1,1.1-3.2,3.4-2.8,5.7,3.3-.3,15-.3,41.7,8.2Z"/>
  <path class="st0" d="M620.2,256.5h0c-25.2-12.7-57.4-26.9-83.4-37.8,0-5.5,0-14.2,0-14.2,0,0,0,0,0,0,0,0,0-88.3,0-80.1v.4c0-27.5-22.4-49.9-49.9-49.9H131.6c-27.5,0-49.9,22.3-49.9,49.9v49.8c63.8-3.7,79.6,5.9,101.2,19,10,6.1,21.4,13.1,39.9,19.7,29,10.4,56.7,7.3,75.9,2.3-.3,2.2-.6,4.4-.8,6.5-9.7,2.4-21.3,4.2-34.1,4.2s-27.9-2-43-7.4c-19.1-6.8-30.7-13.9-41-20.2-20.7-12.6-35.9-21.8-98.1-18.1v75.8c66.4-.3,137.3.5,203,5.9,5.2.4,10.5.9,15.7,1.3.8,2,1.7,4,2.6,6-6.3-.7-12.6-1.4-18.9-2.1-65.4-7.1-136.4-9.7-202.5-11v12.3c12.6-.2,46-.6,47.2-.4,10.1.2,29.9.6,40.3.8,47.5,2,95.3,5.7,142.2,14,2.5,3.4,5.3,6.6,8.3,9.7-23.4-5.2-47.1-9.2-70.8-12.6-7.8-1.1-26.2-3.1-34.2-4.1-15-1.6-30.7-2.7-45.7-4-10.2-.5-30-1.6-40.1-2.1,0,0-2.9-.1-2.9-.1h-2.9c0,0-41.4-1-41.4-1v13.4c63.3-1,145,.8,201.6,28.5,9.1,4.7,17.6,10.2,24.9,17.4-4.3.7-8.6,1.7-12.9,2.9-8.9-7.9-19.8-13.8-30.5-18.7-14.3-6.4-29.7-11-45-14.7-45.2-10.6-91.8-14-138.1-15.2v13.7c10.3-1.4,20.7-2,31.1-1.5,8.3.5,36.3,3.2,30.5,16.6-4.6,8.7-22.5,15.2-31.4,18.8-10,3.8-20,7-30.2,10v105.7c24.8-9.6,49.9-18.5,75.3-26.4,10.5-3.2,21-6.4,31.6-9.2-2.1,2.6-4.2,5.2-6.3,7.9-7.6,2.8-15.1,5.8-22.6,8.8-9.2,3.8-18.4,7.7-27.6,11.7-14.8,7.8-46.7,26.1-50.4,41.4v269.2c0,27.5,22.4,49.9,49.9,49.9h74.9c-23.8-28.3-41.8-61.8-45.8-97.3-.9-8.2-1.1-16.4-.5-24.6.7,8.1,2.1,16.1,4.2,23.9,8.9,32,28.7,59.1,53.2,81.1,9,7.1,23.8,15.5,43.9,16.7h26.6c.9,9.5,3.5,25.5,3.8,33.7-15.5,5.3-26.5,12.1-33.3,20.6-5.4,6.7-7,13-4.8,18.7.6,1.5,1.9,2.6,3.5,2.9.5,0,1,.1,1.4.1,3.4,0,5.5-2.2,6.6-3.4.2-.3.6-.7.7-.8,15.1-10.6,30-15.9,44.3-15.9s9.5.6,14.1,1.8c9,2.4,14.8,9,21,16.1,3.2,3.6,6.5,7.4,10.4,10.7l.2.2c5.3,4.6,8.5,6.4,11.3,6.4s3-.6,4.1-1.6c1-.9,1.5-2.3,1.4-3.6l-.2-3.4c4.5,2.9,9.5,5.7,15.4,6.1,1.3,0,2.5-.4,3.4-1.2,4.1-3.8,0-9.7-3.6-15-2.7-4-6.1-8.4-7.3-9.7-13.1-14.6-33.9-25.2-49-30.2-1-.3-2.4-.7-4.5-1.2-2.2-.5-7-1.6-9.3-2.5-.6-6.6-3.2-21-3.9-28.8h177c25.2-1.9,45.3-22.7,46-48.2v-103l-.4-.2c-20-13-59.1-41.9-57.2-68.2,1.2-10.5,7.1-20.8,15.6-27.1,6.2-4.7,12.6-8.3,18.6-13,9.5-7.3,17.1-16.7,23.3-26.9v-182.5c-16.3-15.6-52-26-62.5-28.9-1.9-3.4-4.1-6.7-6.3-9.9,2.6.7,5.1,1.4,7.7,2.1,6.7,1.8,14.8,4.8,21.4,6.9,2.2.7,4.9,1.8,7.1,2.7,3.9,1.6,10.2,3.9,14,5.8l6.9,3.2c3.3,1.6,6.9,3.7,10.2,5.5.5.4,1.1.7,1.5,1.1v-4.4c0-.2,0-.5,0-.7v-55.6c5.9,1.5,11.4,3.1,16.6,4.5,9.5,2.6,17.6,4.9,24.8,6.4,9.3,2,18.1,3,25.9,3s11.5-.7,14.3-1.4c2.2-.5,4.2-2,5.1-4,1.8-3.7.1-8-3.3-9.7ZM493.8,420.6h0c8.7-13.6,4.5-29.5-3.5-43.3,0-1.5,0-3,.1-4.4,15.5,19.6,22.3,44.2.6,64.8-3.7,3.5-7.7,6.5-11.9,9.2.3-1.4.6-2.8.9-4.2.8-3.6,1.6-7.2,2.4-10.8,4.4-3.1,8.3-6.7,11.3-11.3ZM620.2,263.4c-.2,1.4-1.2,2.5-2.5,2.8-2.3.5-6.8,1.3-13.6,1.3s-14.7-.7-25.1-2.9c-7-1.5-15.1-3.8-24.5-6.4-5.5-1.5-11.4-3.1-17.6-4.8h0c-22.8-6.1-50.6-12.7-81.6-14.3h-2.5c-12.6-.3-25.2-.4-38.6-3.2-10.4-2.2-20.6-7.9-31.3-7.8-6.4,0-10.5,3.6-11.7,8.2.5,3.1,2.2,6.2,5.1,8.8,10.7,9.3,31.8,14.2,45.1,20.4,46.2,21.7,61.4,65.4,59,114.3-1.5,31.3-10.7,60.4-16.1,91-.7,3.8-2.5,22.6-3.6,23.9-2.6,3.2-6.1-5.3-6.9-7.2-3-7.6-2.9-15-3.9-22.9-.1-1.1-.1-2.3-1.5-2.6-6.9,21.4-8,44.1-11.2,66.2-5,3.4-12.1-17.3-12.4-20.7l-3.2-16.5c-7.6,20.6-9.7,42.4-12.7,64-1.4.3-1.5-.4-2.1-1.2-7.9-10.1-11.8-25.6-13.1-38.2-5.1,5.9-9.5,12.3-14.5,18.2-4.2,4.9-9.9,11.6-14.5,16-4.8,4.6-17.5,11.7-20.4,15.3-4.2,5.4-9.8,20.9-14.1,28.3-8.8,15.3-20.1,24.8-23.7,42.5-2.4,12-4.1,25.2-5.4,37.3,24.9,5.1,50.6,7.1,74.9,14.7,28.2,8.8,52,44.4,53,73.5,0,1.5.4,3-1.1,4-7.5-4.7-11-13.3-14.9-20.8l-1.1,13.4c-2,1.9-6.1-5.6-6.8-6.9-7.7-14.4-6.5-33.3-22.6-42.9-1,0-1.8,7.1-1.8,8.5-.3,5.1,1,22.6-1.1,25.7-2.3,3.4-6.2-5.4-6.9-7.2-3.8-10.4-1.9-21.3-2.5-32.1-23.6-6.2-47.8-10.9-72.1-14.2v14.5c3.9,31.5,7.8,63,11.1,94.6h0c.8,8.3,3.5,23.9,4.3,32.2.7,2.2,13.9,4.6,16.8,5.5,16.5,5.4,35.4,15.9,47,28.9,1.7,1.9,12.9,16.6,11.2,18.2-7.8-.5-14.4-6.6-20.8-10.4l.7,12.6c-.2.2-.5.3-.8.3-2.3,0-7.3-4.4-8.5-5.5-11.2-9.6-17.9-23.7-33.3-27.8-5.2-1.4-10.3-2-15.3-2-16.8,0-33,7-46.9,16.8-1.6,1.1-2.5,3.3-4.7,3.3s-.4,0-.6,0c-1.9-5,.9-10.2,4.1-14.1,8.3-10.3,22.1-16.3,34.5-20.2-.3-9.9-2.9-27.1-3.9-37h0c-4.1-38-11.5-75.6-14.5-113.7-1.1-1.6-32.5-3.9-37.1-4.5-10.7-1.5-25.6-4-25.1-18.1.3-7.8,17.7-33.5,22-42.8,1.7-3.8,3.3-7.8,4.1-11.9-15,5-30.8,5.6-46.3,8.4-4,.7-13.5,2.5-16.7,4.1-5.1,2.4-16.7,15.3-22.6,19.8-10,7.6-28.8,19.5-41.8,16.6-2.4-.5-5-3.9-5-6.2v-10.8c-18.6,10.3-12.6-7.8-10.2-18.7,4.8-21.5,13.6-41.8,20.8-62.5,5.7-16.4,9.4-31.9,16.8-47.9,29.9-64.7,97.9-160.8,173.2-172.7,19.6-3.1,47.3-2,62.8,12.1,7.9,7.3,20.6,29.7,32.3,13,10.7-15.4-4.8-37.5-18.2-45.6-10.6-6.4-24.5-8.7-35.7-14.2-26.5-13-43.5-35.7-46.5-62.8,0,0,0,0,0,0-1.9-12.3,1.8-22.5,1.8-22.5h0c.8-3.3,1.8-6.7,3-10,2.3-6.3,6.1-11.7,9.2-17.5-17,5.3-35.4,7-52.8,2.1-4.7-1.3-13.1-5-16.5-8.4-5-5,6.9-1.3,9.9-1.1,43.3,3.4,69.7-33.1,110.5-36.1,27.1-2,52.5,2,75,17.7,10.7,7.5,19.2,17.9,27.6,27.9,2.4,1.7,17.3,11.8,42.2,21.7,6.4,2.5,13.8,5.5,21.7,8.8,0,0,0,0,0,0,0,0,0,0,0,0,25.6,10.7,57,24.6,81.6,37,1.2.6,2,2,1.8,3.3h0Z"/>
  <polygon class="st0" points="655.6 268 655.6 268 664.4 268 664.4 197.6 687.9 197.6 687.9 189 633.1 189 633.1 197.6 655.6 197.6 655.6 268"/>
  <polygon class="st0" points="711.6 232.9 755.6 232.9 755.6 268 764.4 268 764.4 189 755.6 189 755.6 224.3 711.6 224.3 711.6 189 702.8 189 702.8 268 711.6 268 711.6 232.9"/>
  <polygon class="st0" points="783.3 268 783.3 268 783.3 268 783.3 268"/>
  <polygon class="st0" points="783.3 268 830.9 268 830.9 259.4 792.1 259.4 792.1 231.7 824.8 231.7 824.8 223.1 792.1 223.1 792.1 197.6 831.2 197.6 831.2 189 783.3 189 783.3 268"/>
  <path class="st0" d="M719.5,301.6h-85.8v211.5h88.8c10.3,0,19.6-1.5,27.9-4.4,8.4-2.9,15.5-7.1,21.5-12.5,5.9-5.4,10.5-12,13.7-19.6,3.2-7.7,4.8-16.2,4.8-25.7s-2.1-17.6-6.2-25.1c-4.1-7.5-9.8-13.7-17.1-18.9-4.8-3.4-10.1-6-16.1-8,7.3-3.4,13.4-8,18.2-14.1,6.6-8.4,10-18.4,10-30.1s-2.4-20.3-7.3-28.3c-4.8-8-11.7-14.1-20.7-18.4-9-4.3-19.6-6.5-31.9-6.5ZM759.8,432.8c3.9,5.4,5.9,11.8,5.9,19s-1.9,14.4-5.6,20.2c-3.7,5.8-9,10.3-15.7,13.4-6.8,3.1-14.7,4.7-23.7,4.7h-63.5v-74.6h61.9c9.3,0,17.4,1.5,24.3,4.5,7,3,12.4,7.3,16.3,12.7ZM750.3,376.1c-3.2,5.1-7.7,9.2-13.3,12.1-5.6,2.9-12.1,4.4-19.3,4.4h-60.4v-68h58.3c12.5,0,22.2,3.1,29.2,9.4,6.9,6.2,10.4,14.5,10.4,24.8s-1.6,12.2-4.8,17.4Z"/>
  <polygon class="st0" points="961.5 490.2 860 490.2 860 301.6 836.4 301.6 836.4 513.1 961.5 513.1 961.5 490.2"/>
  <path class="st0" d="M1082.7,515.2c16.1,0,30.5-3.6,43.1-10.7,12.6-7.1,22.5-17,29.6-29.6,7.1-12.6,10.7-26.8,10.7-42.8v-130.5h-22.7v127.8c0,11.9-2.6,22.6-7.9,32-5.2,9.5-12.4,16.9-21.6,22.4-9.2,5.4-19.6,8.2-31.3,8.2s-21.1-2.7-30.1-8.2c-9-5.4-16.1-12.9-21.3-22.4-5.2-9.5-7.9-20.1-7.9-32v-127.8h-23.6v130.5c0,15.9,3.6,30.2,10.7,42.8,7.1,12.6,17,22.5,29.5,29.6,12.5,7.2,26.7,10.7,42.6,10.7h0Z"/>
  <polygon class="st0" points="1354.6 490.2 1250.6 490.2 1250.6 415.8 1338.3 415.8 1338.3 392.9 1250.6 392.9 1250.6 324.6 1355.2 324.6 1355.2 301.6 1227.1 301.6 1227.1 513.1 1354.6 513.1 1354.6 490.2"/>
  <polygon class="st0" points="775.1 642.4 657.2 642.4 657.2 547.8 633.7 547.8 633.7 759.3 657.2 759.3 657.2 665.4 775.1 665.4 775.1 759.3 798.6 759.3 798.6 547.8 775.1 547.8 775.1 642.4"/>
  <polygon class="st0" points="860.9 759.3 988.4 759.3 988.4 736.4 884.4 736.4 884.4 662.1 972.1 662.1 972.1 639.1 884.4 639.1 884.4 570.8 989 570.8 989 547.8 860.9 547.8 860.9 759.3"/>
  <path class="st0" d="M1159.1,667.6c9.7-5.5,17.3-13,23-22.5,5.6-9.5,8.5-20,8.5-31.7s-2.9-23.7-8.8-33.5c-5.8-9.9-13.7-17.7-23.7-23.4-10-5.7-21.1-8.6-33.4-8.6h-82.8v211.5h23.6v-83.4h57.8l47.7,83.4h0s28.1,0,28.1,0l-50.5-86.9c3.7-1.3,7.2-2.9,10.6-4.8ZM1065.4,653v-82.2h56.2c8.7,0,16.4,1.8,23.1,5.4,6.7,3.6,12,8.7,15.9,15.1,3.8,6.4,5.7,13.8,5.7,22.1s-1.6,14.5-4.8,20.4c-3.2,5.9-7.7,10.6-13.3,14.1-5.6,3.4-12.2,5.1-19.6,5.1h-63.2Z"/>
  <path class="st0" d="M1400.1,576.4c-9.4-9.8-20.3-17.3-32.9-22.7-12.6-5.3-26.4-8-41.5-8s-28.7,2.7-41.2,8c-12.6,5.3-23.6,12.9-32.9,22.7-9.4,9.8-16.6,21.3-21.8,34.4-5.1,13.2-7.7,27.6-7.7,43.4s2.6,30.2,7.7,43.4c5.1,13.2,12.4,24.6,21.8,34.3,9.4,9.7,20.3,17.2,32.9,22.5,12.6,5.3,26.3,8,41.2,8h0c15.1,0,29-2.7,41.5-8,12.6-5.3,23.6-12.9,32.9-22.7,9.4-9.8,16.6-21.2,21.8-34.4,5.1-13.2,7.7-27.5,7.7-43.1s-2.6-30.2-7.7-43.4c-5.1-13.2-12.4-24.7-21.8-34.4ZM1399.2,688.2c-3.9,10.4-9.4,19.4-16.5,27-7.1,7.7-15.5,13.5-25.2,17.7-9.8,4.1-20.4,6.2-31.9,6.2s-22.1-2.1-31.9-6.2c-9.8-4.1-18.2-10-25.2-17.7-7.1-7.7-12.5-16.7-16.3-27-3.8-10.4-5.7-21.7-5.7-34s1.9-23.9,5.7-34.3c3.8-10.4,9.3-19.4,16.3-27,7-7.7,15.5-13.6,25.2-17.8,9.8-4.2,20.4-6.3,31.9-6.3s22.1,2.1,31.9,6.3c9.8,4.2,18.2,10.2,25.2,17.8,7,7.7,12.5,16.7,16.5,27,3.9,10.4,5.9,21.8,5.9,34.3s-2,23.6-5.9,34Z"/>
  <path class="st0" d="M1627.4,547.8v77.7c0,6.8,0,14.5.2,23,0,8.5.2,17.1.5,26,.2,8.9.5,17.4.8,25.5.3,8.2.6,15.5.9,21.9,0,.6,0,1.2,0,1.8l-132.9-175.8h-21.5v211.5h0s23.6,0,23.6,0v-96.1c0-1.8,0-4.8-.2-9.1-.1-4.2-.3-9.4-.5-15.4-.2-6-.5-12.7-.8-19.9s-.7-14.8-1.2-22.7c-.2-3.8-.5-7.7-.8-11.6l133.3,174.8h22.1v-211.5h-23.6Z"/>
</svg>